<svg width="38" height="38" viewBox="0 0 38 38" fill="none" xmlns="http://www.w3.org/2000/svg">
<path d="M37.582 9.08201C37.781 8.88273 37.9165 8.62893 37.9714 8.35267C38.0263 8.07641 37.9981 7.79009 37.8903 7.52986C37.7826 7.26963 37.6001 7.04717 37.366 6.89057C37.1319 6.73397 36.8566 6.65026 36.575 6.65001H31.35V1.42502C31.3497 1.14336 31.266 0.868094 31.1094 0.633984C30.9528 0.399875 30.7304 0.217422 30.4701 0.109671C30.2099 0.00191925 29.9236 -0.0262984 29.6473 0.028582C29.3711 0.0834623 29.1173 0.218979 28.918 0.418016L24.168 5.16801C23.9007 5.435 23.7503 5.79721 23.75 6.17501V11.5634L19.9842 15.3292C19.4212 15.1794 18.8313 15.1609 18.26 15.275C17.6887 15.3892 17.1512 15.633 16.689 15.9876C16.2268 16.3423 15.8522 16.7983 15.594 17.3206C15.3359 17.8428 15.2011 18.4174 15.2 19C15.2002 19.5408 15.3159 20.0753 15.5393 20.5678C15.7627 21.0603 16.0886 21.4995 16.4953 21.8559C16.9019 22.2124 17.38 22.4779 17.8976 22.6348C18.4151 22.7917 18.9602 22.8363 19.4963 22.7657C20.0325 22.6951 20.5474 22.5108 21.0066 22.2252C21.4659 21.9397 21.8589 21.5594 22.1594 21.1098C22.4599 20.6601 22.6609 20.1515 22.7491 19.618C22.8373 19.0844 22.8106 18.5382 22.6708 18.0158L26.4366 14.25H31.825C32.2028 14.2497 32.565 14.0993 32.832 13.832L37.582 9.08201ZM19 1.60892e-05C21.2186 -0.00287402 23.4206 0.383622 25.5056 1.14192L22.8228 3.82471C22.705 3.94251 22.5948 4.07171 22.4979 4.20471C19.2793 3.44456 15.9005 3.75489 12.8742 5.08862C9.8479 6.42236 7.33915 8.70674 5.72853 11.5952C4.1179 14.4837 3.49329 17.8187 3.94944 21.0942C4.40559 24.3698 5.91761 27.4072 8.25614 29.7458C10.5947 32.0843 13.6321 33.5963 16.9077 34.0525C20.1832 34.5086 23.5182 33.884 26.4067 32.2734C29.2952 30.6628 31.5795 28.154 32.9133 25.1277C34.247 22.1014 34.5574 18.7226 33.7972 15.504C33.9302 15.4052 34.0575 15.295 34.1772 15.1772L36.8562 12.4944C37.6151 14.5793 38.0022 16.7813 38 19C38 29.4937 29.4937 38 19 38C8.5063 38 0 29.4937 0 19C0 8.50631 8.5063 1.60892e-05 19 1.60892e-05ZM19 7.60001C19.9842 7.60001 20.938 7.72541 21.85 7.96101V10.7768L21.0634 11.5634C21.0318 11.5945 21.0008 11.6262 20.9703 11.6584C19.8441 11.3581 18.664 11.3205 17.521 11.5484C16.378 11.7764 15.3027 12.2639 14.3779 12.9733C13.4531 13.6827 12.7037 14.5951 12.1874 15.64C11.6711 16.6849 11.4017 17.8345 11.4 19C11.4008 20.0815 11.6323 21.1504 12.0793 22.1352C12.5262 23.1201 13.1781 23.9982 13.9916 24.7109C14.805 25.4236 15.7612 25.9545 16.7963 26.2681C17.8313 26.5817 18.9214 26.6708 19.9936 26.5294C21.0658 26.388 22.0955 26.0194 23.0139 25.4482C23.9322 24.877 24.7181 24.1164 25.319 23.2172C25.9199 22.318 26.3219 21.3009 26.4983 20.2339C26.6746 19.1668 26.6212 18.0744 26.3416 17.0297L26.4366 16.9366L27.2232 16.15H30.0409C30.6352 18.4519 30.4951 20.882 29.64 23.1003C28.7849 25.3186 27.2577 27.2141 25.272 28.5215C23.2864 29.8288 20.9417 30.4827 18.566 30.3916C16.1904 30.3005 13.9027 29.469 12.023 28.0134C10.1433 26.5578 8.76574 24.5509 8.08304 22.2737C7.40034 19.9964 7.44668 17.5627 8.21557 15.3131C8.98446 13.0634 10.4374 11.1105 12.3712 9.72747C14.3049 8.34447 16.6226 7.60062 19 7.60001Z" fill="#FBD209"/>
</svg>
