<svg width="110" height="63" viewBox="0 0 110 63" fill="none" xmlns="http://www.w3.org/2000/svg">
<path d="M53.3612 62.1038C66.0581 62.1038 76.3511 51.8109 76.3511 39.1139C76.3511 26.4169 66.0581 16.124 53.3612 16.124C40.6642 16.124 30.3713 26.4169 30.3713 39.1139C30.3713 51.8109 40.6642 62.1038 53.3612 62.1038Z" fill="#FBD209"/>
<path d="M110 58.3041C109.676 57.6234 99.1163 35.9353 56.2688 34.356H55.5088C55.5088 34.356 58.6279 33.2062 58.4627 31.0387C58.4627 31.0387 55.0859 30.8999 53.4867 32.8361L53.1497 30.2259H55.6806C55.6806 30.2259 58.1257 29.38 58.7138 27.1861C58.7138 27.1861 55.4229 26.6773 53.7378 28.9571L53.3612 28.8976L53.4206 26.3403C53.4206 26.3403 58.7733 26.2015 58.998 19.4545C58.998 19.4545 56.1829 18.7805 52.925 24.2917C52.925 24.2917 50.1298 19.0646 46.8191 19.2166C46.8191 19.2166 46.3168 25.6266 51.9668 26.3865L51.9867 28.6399C51.9867 28.6399 49.7333 26.0891 46.8389 27.0605C46.8389 27.0605 47.4138 29.8888 50.7641 30.3712L52.0726 30.3514L52.0527 32.9617C52.0527 32.9617 50.8501 30.4968 46.8653 30.4373C46.8653 30.4373 47.0768 33.259 50.0901 34.2965C50.0901 34.2965 31.3823 36.7217 25.3094 39.9267V37.6336L16.3949 37.6469L16.4081 42.9599C16.4081 42.9599 4.55965 48.6958 0 58.3173C0 58.3173 8.18095 49.6275 17.2077 45.9137V56.7974L37.29 56.5463L38.3011 53.6783L44.1229 53.5065L44.7969 56.6256L62.1765 56.5463V54.4317L63.4387 54.3524L64.1127 56.6256L76.6815 56.7115L77.7784 53.5065L83.098 53.5924L84.6972 56.7115L92.8782 56.5463L86.303 43.3828C86.303 43.3828 100.715 48.438 110 58.3041ZM31.27 54.0947L31.5541 48.8676C29.3602 51.2862 24.86 50.2156 24.86 50.2156V43.0061C31.4947 40.2307 37.2306 40.4289 37.2306 40.4289L31.27 54.0947ZM71.091 54.2929L67.7406 49.7927C67.7406 49.7927 71.5073 48.4711 71.765 44.6185C71.765 44.6185 71.8178 41.6118 68.223 39.1073C68.223 39.1073 73.0272 39.365 76.7938 40.7131L71.091 54.2929Z" fill="#259E38"/>
<path d="M47.4534 40.2637L52.6012 48.0283L58.1653 40.4355L53.4008 42.8409V40.984L58.0001 38.1557L53.4008 39.5897V38.1557L57.6631 35.6248L53.4405 36.7217L53.3149 33.7282H52.0527L52.0924 36.5962L48.0416 35.1622L51.9668 38.1557L52.0527 39.5897L48.0416 37.9905L52.0924 40.8783L52.1387 42.8806L47.4534 40.2637Z" fill="white"/>
<path d="M52.7863 21.7079C53.4505 21.7079 53.9889 21.1694 53.9889 20.5052C53.9889 19.841 53.4505 19.3025 52.7863 19.3025C52.122 19.3025 51.5836 19.841 51.5836 20.5052C51.5836 21.1694 52.122 21.7079 52.7863 21.7079Z" fill="white"/>
<path d="M41.7572 44.189L39.9862 48.2794H43.4489L41.7572 44.189Z" fill="#FBD209"/>
<path d="M81.1817 44.2286L79.86 48.22H82.8734L81.1817 44.2286Z" fill="white"/>
<path d="M61.9518 42.9532V46.9182C61.9518 46.9182 63.7096 46.7662 63.7955 44.9357C63.7889 44.9357 63.7492 43.0656 61.9518 42.9532Z" fill="#FBD209"/>
<path d="M37.8253 5.92094C37.5147 6.09936 37.1777 6.23152 36.8341 6.31743C36.4838 6.40334 36.1204 6.44959 35.7371 6.44959C34.8252 6.44959 34.0983 6.17205 33.5564 5.62357C33.0211 5.07509 32.7502 4.30193 32.7502 3.3041C32.7502 2.29304 33.0542 1.48684 33.6555 0.892106C34.2503 0.297369 35.0234 0 35.9684 0C36.312 0 36.6358 0.033041 36.9332 0.105731C37.2306 0.178421 37.5279 0.29076 37.8385 0.449357L37.5412 1.04409C37.2834 0.91193 37.0257 0.812808 36.7812 0.753334C36.5235 0.69386 36.2526 0.660819 35.9618 0.660819C35.2481 0.660819 34.66 0.885498 34.1974 1.34146C33.7348 1.79743 33.5102 2.43181 33.5102 3.25784C33.5102 4.09708 33.715 4.72486 34.1181 5.15439C34.5212 5.58392 35.0895 5.79538 35.823 5.79538C36.0675 5.79538 36.2922 5.76895 36.5037 5.72269C36.7151 5.67644 36.9068 5.60375 37.0852 5.50462V3.75345H35.7173V3.09263H37.8187V5.92094H37.8253Z" fill="#259E38"/>
<path d="M46.6869 6.35047H45.8146L44.7441 4.57948C44.5458 4.24907 44.374 4.0376 44.2286 3.93848C44.0833 3.84597 43.9114 3.79971 43.7132 3.79971H42.9929V6.35047H42.2594V0.105731H44.1229C44.6648 0.105731 45.1208 0.251111 45.4776 0.535263C45.841 0.819416 46.0195 1.24895 46.0195 1.80404C46.0195 2.24678 45.9071 2.61684 45.6758 2.91421C45.4446 3.21158 45.134 3.42965 44.7309 3.56182V3.58164C44.863 3.66094 44.9754 3.74684 45.0745 3.83936C45.1736 3.93187 45.2793 4.07065 45.3851 4.24907L46.6869 6.35047ZM42.9929 0.76655V3.13228H43.9841C44.3476 3.13228 44.6516 3.01334 44.8895 2.78205C45.134 2.54415 45.2529 2.24018 45.2529 1.87012C45.2529 1.5331 45.1472 1.26877 44.9291 1.07053C44.711 0.872281 44.4005 0.773158 43.9907 0.773158H42.9929V0.76655Z" fill="#259E38"/>
<path d="M55.152 3.81953C55.152 4.69842 54.9537 5.35924 54.5572 5.79538C54.1608 6.23152 53.566 6.4562 52.7796 6.4562C52.0197 6.4562 51.4514 6.24474 51.0747 5.82182C50.6981 5.39889 50.5064 4.77111 50.5064 3.92527V0.105731H51.2399V3.87901C51.2399 4.52 51.3721 4.99579 51.643 5.31959C51.914 5.6434 52.3171 5.80199 52.8589 5.80199C53.381 5.80199 53.7709 5.65 54.0352 5.33942C54.2995 5.02883 54.4251 4.56626 54.4251 3.9517V0.118947H55.1586V3.81953H55.152Z" fill="#259E38"/>
<path d="M60.4253 4.05743V6.35047H59.6918V0.105731H61.4099C62.0774 0.105731 62.5928 0.270936 62.9629 0.601345C63.3329 0.931755 63.5114 1.40094 63.5114 2.00228C63.5114 2.60363 63.3065 3.09263 62.9034 3.48252C62.4937 3.86579 61.9452 4.05743 61.2514 4.05743H60.4253ZM60.4253 0.76655V3.39661H61.1919C61.6941 3.39661 62.084 3.27766 62.3483 3.03977C62.6126 2.80187 62.7448 2.47146 62.7448 2.03532C62.7448 1.6124 62.6259 1.29521 62.3814 1.08374C62.1369 0.872281 61.7734 0.76655 61.2844 0.76655H60.4253Z" fill="#259E38"/>
<path d="M70.1922 6.44959C69.3067 6.44959 68.5997 6.15883 68.0644 5.57731C67.5291 4.99579 67.2648 4.23585 67.2648 3.29749C67.2648 2.29304 67.5357 1.49345 68.0776 0.892106C68.6195 0.29076 69.3596 0 70.298 0C71.157 0 71.8575 0.29076 72.3795 0.872281C72.9082 1.4538 73.1725 2.21374 73.1725 3.15211C73.1725 4.16977 72.9016 4.97597 72.3597 5.57071C71.8179 6.15883 71.0976 6.44959 70.1922 6.44959ZM70.1922 5.79538C70.8795 5.79538 71.4147 5.57071 71.8112 5.12796C72.2077 4.6786 72.406 4.05743 72.406 3.25123C72.406 2.42521 72.2143 1.79082 71.8311 1.34146C71.4478 0.885498 70.9191 0.660819 70.2451 0.660819C69.5909 0.660819 69.0556 0.898714 68.6459 1.3679C68.2362 1.84369 68.0314 2.46486 68.0314 3.23141C68.0314 3.99796 68.2296 4.61913 68.6327 5.08831C69.0292 5.5641 69.5512 5.79538 70.1922 5.79538Z" fill="#259E38"/>
</svg>
