<svg width="14" height="9" viewBox="0 0 14 9" fill="none" xmlns="http://www.w3.org/2000/svg">
<path fill-rule="evenodd" clip-rule="evenodd" d="M0 4.50059C0 4.36798 0.0526784 4.2408 0.146447 4.14704C0.240215 4.05327 0.367392 4.00059 0.5 4.00059L12.293 4.00059L9.146 0.854589C9.05211 0.760703 8.99937 0.633365 8.99937 0.500589C8.99937 0.367814 9.05211 0.240476 9.146 0.146589C9.23989 0.0527029 9.36722 -4.19617e-05 9.5 -4.19617e-05C9.63278 -4.19617e-05 9.76011 0.0527029 9.854 0.146589L13.854 4.14659C13.9006 4.19304 13.9375 4.24821 13.9627 4.30896C13.9879 4.3697 14.0009 4.43482 14.0009 4.50059C14.0009 4.56636 13.9879 4.63148 13.9627 4.69222C13.9375 4.75297 13.9006 4.80814 13.854 4.85459L9.854 8.85459C9.76011 8.94848 9.63278 9.00122 9.5 9.00122C9.36722 9.00122 9.23989 8.94848 9.146 8.85459C9.05211 8.7607 8.99937 8.63336 8.99937 8.50059C8.99937 8.36781 9.05211 8.24048 9.146 8.14659L12.293 5.00059L0.5 5.00059C0.367392 5.00059 0.240215 4.94791 0.146447 4.85414C0.0526784 4.76037 0 4.6332 0 4.50059Z" fill="#FBD209"/>
</svg>
