<svg width="40" height="40" viewBox="0 0 40 40" fill="none" xmlns="http://www.w3.org/2000/svg">
<path d="M38.5837 13.702C40.9761 11.3095 39.8852 8.51509 38.5837 7.15617L32.8417 1.41424C30.4301 -0.978226 27.6549 0.11274 26.2959 1.41424L23.0422 4.68714H18.085C14.4484 4.68714 12.343 6.60112 11.2712 8.80219L2.77317 17.3002V24.9561L1.41424 26.2959C-0.978226 28.7075 0.11274 31.4828 1.41424 32.8417L7.15617 38.5837C8.18972 39.6172 9.29982 40 10.3525 40C11.7114 40 12.9555 39.3301 13.702 38.5837L18.8697 33.3968H25.7409C28.9946 33.3968 30.6407 31.368 31.234 29.3774C33.3968 28.8032 34.5835 27.1572 35.0619 25.5495C38.0286 24.7839 39.1387 21.9703 39.1387 19.9989V14.257H38.0095L38.5837 13.702ZM35.3108 19.9989C35.3108 20.8602 34.9471 21.9129 33.3968 21.9129H31.4828V23.8269C31.4828 24.6882 31.1192 25.7409 29.5688 25.7409H27.6549V27.6549C27.6549 28.5161 27.2912 29.5688 25.7409 29.5688H17.3002L11.0224 35.8467C10.4291 36.4017 10.0846 36.0763 9.87402 35.8658L4.15123 30.1622C3.59618 29.5688 3.92155 29.2243 4.13209 29.0138L6.60112 26.5256V18.8697L10.4291 15.0418V18.085C10.4291 20.4009 11.9603 23.8269 16.171 23.8269C20.3817 23.8269 21.9129 20.4009 21.9129 18.085H35.3108V19.9989ZM35.8658 10.9841L32.6121 14.257H18.085V18.085C18.085 18.9463 17.7213 19.9989 16.171 19.9989C14.6207 19.9989 14.257 18.9463 14.257 18.085V12.343C14.257 11.4626 14.5824 8.51509 18.085 8.51509H24.6116L28.9755 4.15123C29.5688 3.59618 29.9133 3.92155 30.1239 4.13209L35.8467 9.83574C36.4017 10.4291 36.0764 10.7736 35.8658 10.9841Z" fill="#259E38"/>
</svg>
