<svg width="41" height="40" viewBox="0 0 41 40" fill="none" xmlns="http://www.w3.org/2000/svg">
<path d="M39.6748 14.0851L27.3838 12.2602L21.8894 0.880338C21.7394 0.568764 21.4925 0.316538 21.1875 0.163224C20.4226 -0.222534 19.4932 0.0989307 19.1108 0.880338L13.6164 12.2602L1.32536 14.0851C0.986497 14.1346 0.67668 14.2978 0.439477 14.5451C0.152711 14.8462 -0.00531001 15.2513 0.000136251 15.6714C0.00558251 16.0915 0.17405 16.4922 0.468522 16.7854L9.36122 25.643L7.26028 38.1505C7.21101 38.4415 7.24253 38.7407 7.35125 39.0143C7.45997 39.2879 7.64156 39.5249 7.8754 39.6984C8.10925 39.8719 8.38601 39.975 8.6743 39.996C8.96259 40.017 9.25087 39.9551 9.50645 39.8172L20.5001 33.9121L31.4937 39.8172C31.7939 39.9804 32.1424 40.0348 32.4764 39.9754C33.3188 39.8271 33.8851 39.0111 33.7399 38.1505L31.639 25.643L40.5317 16.7854C40.7737 16.5431 40.9335 16.2266 40.9819 15.8804C41.1126 15.0149 40.522 14.2137 39.6748 14.0851Z" fill="#FBD209"/>
</svg>
