<svg width="35" height="41" viewBox="0 0 35 41" fill="none" xmlns="http://www.w3.org/2000/svg">
<path d="M15.9688 0.260479L2.84375 4.90169C1.1375 5.52052 0 7.04696 0 8.77968V18.4953C0 28.9122 7.45937 38.6278 17.5 41C27.5406 38.6278 35 28.9122 35 18.4953V8.77968C34.9984 7.94026 34.7254 7.12126 34.2173 6.43202C33.7091 5.74279 32.9901 5.21611 32.1562 4.92232L19.0312 0.281106C18.0469 -0.0901905 16.9531 -0.0901905 15.9688 0.260479ZM13.6281 26.1894L8.99062 21.8163C8.7881 21.6254 8.62745 21.3986 8.51785 21.1491C8.40824 20.8996 8.35183 20.6322 8.35183 20.3621C8.35183 20.092 8.40824 19.8246 8.51785 19.575C8.62745 19.3255 8.7881 19.0988 8.99062 18.9078C9.19315 18.7169 9.43358 18.5654 9.69819 18.462C9.9628 18.3587 10.2464 18.3055 10.5328 18.3055C10.8192 18.3055 11.1028 18.3587 11.3674 18.462C11.632 18.5654 11.8725 18.7169 12.075 18.9078L15.1594 21.8163L22.9031 14.5142C23.1056 14.3232 23.3461 14.1717 23.6107 14.0683C23.8753 13.965 24.1589 13.9118 24.4453 13.9118C24.7317 13.9118 25.0153 13.965 25.2799 14.0683C25.5445 14.1717 25.785 14.3232 25.9875 14.5142C26.19 14.7051 26.3507 14.9318 26.4603 15.1814C26.5699 15.4309 26.6263 15.6983 26.6263 15.9684C26.6263 16.2385 26.5699 16.5059 26.4603 16.7554C26.3507 17.005 26.19 17.2317 25.9875 17.4226L16.7125 26.1687C15.8813 26.9939 14.4812 26.9939 13.6281 26.1894Z" fill="#FBD209"/>
</svg>
