<svg width="40" height="40" viewBox="0 0 40 40" fill="none" xmlns="http://www.w3.org/2000/svg">
<circle cx="20" cy="20" r="20" fill="#CD1719"/>
<path d="M27.2502 14.0049C27.1863 13.9984 27.1219 13.9984 27.058 14.0049H13.933C13.8489 14.0062 13.7653 14.0188 13.6846 14.0424L20.458 20.7878L27.2502 14.0049Z" fill="white"/>
<path d="M27.9438 14.6567L21.1187 21.4536C20.9431 21.6282 20.7055 21.7262 20.4578 21.7262C20.2101 21.7262 19.9725 21.6282 19.7969 21.4536L13.0328 14.7083C13.012 14.7847 13.001 14.8635 13 14.9427V24.3177C13 24.5663 13.0988 24.8048 13.2746 24.9806C13.4504 25.1564 13.6889 25.2552 13.9375 25.2552H27.0625C27.3111 25.2552 27.5496 25.1564 27.7254 24.9806C27.9012 24.8048 28 24.5663 28 24.3177V14.9427C27.9963 14.845 27.9773 14.7485 27.9438 14.6567ZM14.5797 24.3177H13.9281V23.6474L17.3359 20.2677L17.9969 20.9286L14.5797 24.3177ZM27.0531 24.3177H26.3969L22.9797 20.9286L23.6406 20.2677L27.0484 23.6474L27.0531 24.3177Z" fill="white"/>
</svg>
