<svg width="40" height="40" viewBox="0 0 40 40" fill="none" xmlns="http://www.w3.org/2000/svg">
<circle cx="20" cy="20" r="20" fill="#3678EA"/>
<path d="M26.3333 13H14.6667C13.75 13 13 13.75 13 14.6667V26.3333C13 27.2508 13.75 28 14.6667 28H20.5V22.1667H18.8333V20.1042H20.5V18.3958C20.5 16.5925 21.51 15.3258 23.6383 15.3258L25.1408 15.3275V17.4983H24.1433C23.315 17.4983 23 18.12 23 18.6967V20.105H25.14L24.6667 22.1667H23V28H26.3333C27.25 28 28 27.2508 28 26.3333V14.6667C28 13.75 27.25 13 26.3333 13Z" fill="white"/>
</svg>
