<svg width="21" height="20" viewBox="0 0 21 20" fill="none" xmlns="http://www.w3.org/2000/svg">
<path d="M10.5804 0C7.86663 0 7.52538 0.0125 6.45913 0.06C5.39288 0.11 4.66663 0.2775 4.03038 0.525C3.363 0.776024 2.7585 1.16978 2.25913 1.67875C1.75048 2.17837 1.35677 2.7828 1.10538 3.45C0.857883 4.085 0.689133 4.8125 0.640383 5.875C0.592883 6.94375 0.580383 7.28375 0.580383 10.0013C0.580383 12.7163 0.592883 13.0563 0.640383 14.1225C0.690383 15.1875 0.857883 15.9137 1.10538 16.55C1.36163 17.2075 1.70288 17.765 2.25913 18.3212C2.81413 18.8775 3.37163 19.22 4.02913 19.475C4.66663 19.7225 5.39163 19.8912 6.45663 19.94C7.52413 19.9875 7.86413 20 10.5804 20C13.2966 20 13.6354 19.9875 14.7029 19.94C15.7666 19.89 16.4954 19.7225 17.1316 19.475C17.7986 19.2239 18.4027 18.8301 18.9016 18.3212C19.4579 17.765 19.7991 17.2075 20.0554 16.55C20.3016 15.9137 20.4704 15.1875 20.5204 14.1225C20.5679 13.0563 20.5804 12.7163 20.5804 10C20.5804 7.28375 20.5679 6.94375 20.5204 5.87625C20.4704 4.8125 20.3016 4.085 20.0554 3.45C19.804 2.78278 19.4103 2.17834 18.9016 1.67875C18.4024 1.16959 17.7979 0.775807 17.1304 0.525C16.4929 0.2775 15.7654 0.10875 14.7016 0.06C13.6341 0.0125 13.2954 0 10.5779 0H10.5816H10.5804ZM9.68413 1.8025H10.5816C13.2516 1.8025 13.5679 1.81125 14.6216 1.86C15.5966 1.90375 16.1266 2.0675 16.4791 2.20375C16.9454 2.385 17.2791 2.6025 17.6291 2.9525C17.9791 3.3025 18.1954 3.635 18.3766 4.1025C18.5141 4.45375 18.6766 4.98375 18.7204 5.95875C18.7691 7.0125 18.7791 7.32875 18.7791 9.9975C18.7791 12.6663 18.7691 12.9837 18.7204 14.0375C18.6766 15.0125 18.5129 15.5413 18.3766 15.8938C18.2163 16.3279 17.9604 16.7205 17.6279 17.0425C17.2779 17.3925 16.9454 17.6088 16.4779 17.79C16.1279 17.9275 15.5979 18.09 14.6216 18.135C13.5679 18.1825 13.2516 18.1938 10.5816 18.1938C7.91163 18.1938 7.59413 18.1825 6.54038 18.135C5.56538 18.09 5.03663 17.9275 4.68413 17.79C4.24976 17.6299 3.85679 17.3745 3.53413 17.0425C3.20132 16.72 2.94504 16.3271 2.78413 15.8925C2.64788 15.5412 2.48413 15.0113 2.44038 14.0363C2.39288 12.9825 2.38288 12.6663 2.38288 9.995C2.38288 7.325 2.39288 7.01 2.44038 5.95625C2.48538 4.98125 2.64788 4.45125 2.78538 4.09875C2.96663 3.6325 3.18413 3.29875 3.53413 2.94875C3.88413 2.59875 4.21663 2.3825 4.68413 2.20125C5.03663 2.06375 5.56538 1.90125 6.54038 1.85625C7.46288 1.81375 7.82038 1.80125 9.68413 1.8V1.8025ZM15.9191 3.4625C15.7615 3.4625 15.6055 3.49354 15.4599 3.55384C15.3143 3.61415 15.182 3.70254 15.0706 3.81397C14.9592 3.9254 14.8708 4.05769 14.8105 4.20328C14.7502 4.34887 14.7191 4.50491 14.7191 4.6625C14.7191 4.82009 14.7502 4.97613 14.8105 5.12172C14.8708 5.26731 14.9592 5.3996 15.0706 5.51103C15.182 5.62246 15.3143 5.71085 15.4599 5.77116C15.6055 5.83146 15.7615 5.8625 15.9191 5.8625C16.2374 5.8625 16.5426 5.73607 16.7677 5.51103C16.9927 5.28598 17.1191 4.98076 17.1191 4.6625C17.1191 4.34424 16.9927 4.03902 16.7677 3.81397C16.5426 3.58893 16.2374 3.4625 15.9191 3.4625ZM10.5816 4.865C9.90047 4.85437 9.224 4.97936 8.59161 5.23268C7.95921 5.486 7.38353 5.86259 6.89807 6.34053C6.41262 6.81847 6.02709 7.38821 5.76393 8.01657C5.50078 8.64494 5.36526 9.31938 5.36526 10.0006C5.36526 10.6819 5.50078 11.3563 5.76393 11.9847C6.02709 12.613 6.41262 13.1828 6.89807 13.6607C7.38353 14.1387 7.95921 14.5153 8.59161 14.7686C9.224 15.0219 9.90047 15.1469 10.5816 15.1363C11.9298 15.1152 13.2156 14.5649 14.1616 13.6041C15.1076 12.6432 15.6378 11.349 15.6378 10.0006C15.6378 8.65228 15.1076 7.35802 14.1616 6.39719C13.2156 5.43636 11.9298 4.88603 10.5816 4.865ZM10.5816 6.66625C11.4658 6.66625 12.3138 7.01748 12.939 7.64268C13.5642 8.26788 13.9154 9.11583 13.9154 10C13.9154 10.8842 13.5642 11.7321 12.939 12.3573C12.3138 12.9825 11.4658 13.3337 10.5816 13.3337C9.69747 13.3337 8.84951 12.9825 8.22432 12.3573C7.59912 11.7321 7.24788 10.8842 7.24788 10C7.24788 9.11583 7.59912 8.26788 8.22432 7.64268C8.84951 7.01748 9.69747 6.66625 10.5816 6.66625Z" fill="#282828"/>
</svg>
