<svg width="40" height="40" viewBox="0 0 40 40" fill="none" xmlns="http://www.w3.org/2000/svg">
<circle cx="20" cy="20" r="20" fill="#3475A4"/>
<path fill-rule="evenodd" clip-rule="evenodd" d="M13 14.2532C13 13.9208 13.132 13.6021 13.367 13.3671C13.6021 13.132 13.9208 13 14.2532 13H26.7455C26.9102 12.9997 27.0733 13.032 27.2255 13.0948C27.3778 13.1577 27.5161 13.25 27.6327 13.3664C27.7492 13.4828 27.8416 13.621 27.9047 13.7732C27.9677 13.9254 28.0001 14.0885 28 14.2532V26.7455C28.0002 26.9102 27.9679 27.0734 27.9049 27.2256C27.842 27.3778 27.7497 27.5162 27.6332 27.6327C27.5167 27.7492 27.3784 27.8417 27.2262 27.9047C27.074 27.9677 26.9109 28.0001 26.7461 28H14.2532C14.0886 28 13.9255 27.9676 13.7735 27.9045C13.6214 27.8415 13.4832 27.7492 13.3668 27.6327C13.2504 27.5163 13.1581 27.378 13.0952 27.2259C13.0323 27.0738 12.9999 26.9108 13 26.7461V14.2532ZM18.9373 18.7191H20.9684V19.7391C21.2616 19.1527 22.0116 18.625 23.1386 18.625C25.2993 18.625 25.8114 19.793 25.8114 21.9359V25.9055H23.6248V22.4241C23.6248 21.2036 23.3316 20.515 22.587 20.515C21.5541 20.515 21.1245 21.2575 21.1245 22.4241V25.9055H18.9373V18.7191ZM15.1873 25.812H17.3745V18.625H15.1873V25.8114V25.812ZM17.6875 16.2809C17.6916 16.4682 17.6583 16.6544 17.5895 16.8286C17.5207 17.0028 17.4177 17.1616 17.2867 17.2955C17.1558 17.4294 16.9993 17.5358 16.8267 17.6084C16.654 17.6811 16.4686 17.7185 16.2812 17.7185C16.0939 17.7185 15.9085 17.6811 15.7358 17.6084C15.5632 17.5358 15.4067 17.4294 15.2758 17.2955C15.1448 17.1616 15.0418 17.0028 14.973 16.8286C14.9042 16.6544 14.8709 16.4682 14.875 16.2809C14.8831 15.9133 15.0348 15.5635 15.2976 15.3064C15.5605 15.0493 15.9136 14.9053 16.2812 14.9053C16.6489 14.9053 17.002 15.0493 17.2649 15.3064C17.5277 15.5635 17.6794 15.9133 17.6875 16.2809Z" fill="white"/>
</svg>
