<svg width="23" height="19" viewBox="0 0 23 19" fill="none" xmlns="http://www.w3.org/2000/svg">
<path d="M23 2.25375C22.1542 2.6346 21.2456 2.89193 20.2904 3.00825C21.276 2.40896 22.0133 1.46576 22.3649 0.354625C21.4389 0.913543 20.4254 1.30696 19.3686 1.51777C18.6579 0.746662 17.7165 0.235558 16.6907 0.0638109C15.6648 -0.107936 14.6119 0.0692844 13.6953 0.567957C12.7787 1.06663 12.0498 1.85885 11.6217 2.82163C11.1936 3.78441 11.0903 4.86388 11.3278 5.89244C9.4515 5.79671 7.61598 5.30114 5.94036 4.4379C4.26474 3.57465 2.78646 2.36302 1.60147 0.881644C1.19629 1.59188 0.963314 2.41535 0.963314 3.29235C0.962862 4.08184 1.15419 4.85924 1.52031 5.55558C1.88644 6.25191 2.41604 6.84565 3.06214 7.2841C2.31284 7.25988 1.58007 7.05413 0.924822 6.684V6.74576C0.924746 7.85306 1.30167 8.92628 1.99164 9.78333C2.68161 10.6404 3.64213 11.2284 4.71021 11.4478C4.01511 11.6389 3.28635 11.6671 2.57897 11.5301C2.88032 12.4829 3.46732 13.316 4.25779 13.9129C5.04827 14.5099 6.00265 14.8406 6.98732 14.859C5.31578 16.1924 3.25145 16.9157 1.1264 16.9125C0.749968 16.9126 0.373855 16.8903 0 16.8456C2.15705 18.2549 4.66801 19.0029 7.23245 19C15.9134 19 20.6591 11.6938 20.6591 5.35719C20.6591 5.15132 20.654 4.9434 20.6449 4.73753C21.568 4.05917 22.3648 3.21916 22.998 2.25683L23 2.25375Z" fill="#282828"/>
</svg>
