<svg width="40" height="40" viewBox="0 0 40 40" fill="none" xmlns="http://www.w3.org/2000/svg">
<circle cx="20" cy="20" r="20" fill="#4BA0EB"/>
<path d="M29 14.6393C28.3748 14.9163 27.7033 15.1035 26.9972 15.1881C27.7257 14.7522 28.2707 14.0661 28.5306 13.2579C27.8461 13.6645 27.0971 13.9506 26.3159 14.104C25.7906 13.5431 25.0948 13.1713 24.3366 13.0464C23.5784 12.9215 22.8001 13.0504 22.1226 13.4131C21.4451 13.7758 20.9064 14.3521 20.59 15.0524C20.2735 15.7526 20.1972 16.5378 20.3727 17.286C18.9859 17.2163 17.6292 16.8559 16.3907 16.228C15.1522 15.6001 14.0596 14.7188 13.1837 13.6413C12.8842 14.1579 12.712 14.7568 12.712 15.3947C12.7117 15.969 12.8531 16.5344 13.1237 17.0409C13.3943 17.5474 13.7858 17.9793 14.2633 18.2982C13.7095 18.2806 13.1679 18.1309 12.6836 17.8617V17.9066C12.6835 18.712 12.9621 19.4927 13.4721 20.116C13.9821 20.7394 14.692 21.1672 15.4815 21.3267C14.9677 21.4657 14.429 21.4862 13.9062 21.3866C14.1289 22.0796 14.5628 22.6856 15.1471 23.1198C15.7313 23.5539 16.4367 23.7945 17.1645 23.8079C15.9291 24.7778 14.4032 25.3039 12.8326 25.3015C12.5543 25.3016 12.2763 25.2854 12 25.2529C13.5943 26.278 15.4503 26.822 17.3457 26.8199C23.7621 26.8199 27.2698 21.5056 27.2698 16.8966C27.2698 16.7469 27.266 16.5956 27.2593 16.4459C27.9416 15.9525 28.5305 15.3415 28.9985 14.6415L29 14.6393Z" fill="white"/>
</svg>
