<svg width="40" height="40" viewBox="0 0 40 40" fill="none" xmlns="http://www.w3.org/2000/svg">
<circle cx="20" cy="20" r="20" fill="#65CF72"/>
<path fill-rule="evenodd" clip-rule="evenodd" d="M23.9368 21.032C23.7496 20.9384 22.8321 20.4875 22.6613 20.4247C22.4905 20.3625 22.3661 20.3318 22.2411 20.5189C22.1168 20.7048 21.7595 21.1256 21.6508 21.2499C21.5415 21.3749 21.4329 21.39 21.2464 21.297C21.0599 21.2028 20.4582 21.0062 19.7454 20.3707C19.1909 19.8758 18.816 19.2648 18.7073 19.0776C18.5987 18.8911 18.6954 18.79 18.789 18.6971C18.8731 18.6135 18.9755 18.4791 19.0691 18.3705C19.1626 18.2612 19.1934 18.1833 19.2556 18.0584C19.3184 17.934 19.287 17.8254 19.2399 17.7318C19.1934 17.6382 18.8204 16.7195 18.6646 16.3458C18.5133 15.9822 18.3594 16.0318 18.2451 16.0255C18.1358 16.0205 18.0115 16.0192 17.8872 16.0192C17.7628 16.0192 17.5606 16.0657 17.3898 16.2528C17.2183 16.4394 16.7366 16.8909 16.7366 17.8097C16.7366 18.7278 17.4048 19.6152 17.4984 19.7402C17.592 19.8645 18.8141 21.7498 20.6862 22.558C21.1321 22.7502 21.4794 22.8651 21.75 22.9506C22.1972 23.0931 22.6041 23.073 22.9257 23.0247C23.2836 22.9713 24.0297 22.5731 24.1854 22.1373C24.3406 21.7014 24.3406 21.3278 24.2941 21.2499C24.2476 21.172 24.1233 21.1256 23.9361 21.032H23.9368ZM20.5317 25.6811H20.5292C19.4173 25.6813 18.3257 25.3824 17.369 24.8157L17.143 24.6813L14.793 25.298L15.4203 23.0071L15.2728 22.7722C14.6511 21.7827 14.3221 20.6375 14.3238 19.4689C14.3251 16.0462 17.1097 13.2616 20.5342 13.2616C22.1921 13.2616 23.7509 13.9085 24.9227 15.0816C25.5007 15.6572 25.9589 16.3418 26.2706 17.0956C26.5823 17.8494 26.7415 18.6575 26.7389 19.4733C26.7377 22.8959 23.9531 25.6811 20.5317 25.6811ZM25.8145 14.1905C25.1226 13.494 24.2993 12.9417 23.3923 12.5657C22.4854 12.1897 21.5129 11.9974 20.5311 12C16.4151 12 13.0641 15.3504 13.0628 19.4682C13.0622 20.7846 13.4057 22.0695 14.0594 23.2018L13 27.0722L16.959 26.0334C18.0541 26.6301 19.2814 26.9428 20.5286 26.9428H20.5317C24.6477 26.9428 27.9987 23.5924 28 19.4739C28.003 18.4925 27.8114 17.5202 27.4363 16.6133C27.0612 15.7065 26.5099 14.883 25.8145 14.1905Z" fill="white"/>
</svg>
